<svg xmlns="http://www.w3.org/2000/svg" width="64" height="64" viewBox="0 0 64 64">
  <defs>
    <style>
      .cls-1 {
        fill: #f3d7d4;
      }

      .cls-2, .cls-3 {
        fill: none;
      }

      .cls-3 {
        stroke: #c0392b;
        stroke-linecap: round;
        stroke-width: 1.2px;
      }

      .cls-4, .cls-5 {
        stroke: none;
      }

      .cls-5 {
        fill: #c0392b;
      }
    </style>
  </defs>
  <g id="Group_1848" data-name="Group 1848" transform="translate(-1052 -164)">
    <circle id="Ellipse_78" data-name="Ellipse 78" class="cls-1" cx="32" cy="32" r="32" transform="translate(1052 164)"/>
    <g id="Group_551" data-name="Group 551" transform="translate(695 -69)">
      <g id="Path_107" data-name="Path 107" class="cls-2" transform="translate(366 242)">
        <path class="cls-4" d="M23,0A23,23,0,1,1,0,23,23,23,0,0,1,23,0Z"/>
        <path class="cls-5" d="M 23 1.200000762939453 C 20.05648994445801 1.200000762939453 17.20166015625 1.776218414306641 14.51482009887695 2.91265869140625 C 11.91904067993164 4.010578155517578 9.587528228759766 5.582611083984375 7.585071563720703 7.585071563720703 C 5.582611083984375 9.587528228759766 4.010578155517578 11.91904067993164 2.91265869140625 14.51482009887695 C 1.776218414306641 17.20166015625 1.200000762939453 20.05648994445801 1.200000762939453 23 C 1.200000762939453 25.94351005554199 1.776218414306641 28.79833984375 2.91265869140625 31.48517990112305 C 4.010578155517578 34.08095932006836 5.582611083984375 36.41246795654297 7.585071563720703 38.4149284362793 C 9.587528228759766 40.41738891601563 11.91904067993164 41.98941802978516 14.51482009887695 43.08734130859375 C 17.20166015625 44.22378158569336 20.05648994445801 44.79999923706055 23 44.79999923706055 C 25.94351005554199 44.79999923706055 28.79833984375 44.22378158569336 31.48517990112305 43.08734130859375 C 34.08095932006836 41.98941802978516 36.41246795654297 40.41738891601563 38.4149284362793 38.4149284362793 C 40.41738891601563 36.41246795654297 41.98941802978516 34.08095932006836 43.08734130859375 31.48517990112305 C 44.22378158569336 28.79833984375 44.79999923706055 25.94351005554199 44.79999923706055 23 C 44.79999923706055 20.05648994445801 44.22378158569336 17.20166015625 43.08734130859375 14.51482009887695 C 41.98941802978516 11.91904067993164 40.41738891601563 9.587528228759766 38.4149284362793 7.585071563720703 C 36.41246795654297 5.582611083984375 34.08095932006836 4.010578155517578 31.48517990112305 2.91265869140625 C 28.79833984375 1.776218414306641 25.94351005554199 1.200000762939453 23 1.200000762939453 M 23 0 C 35.70254898071289 0 46 10.29745101928711 46 23 C 46 35.70254898071289 35.70254898071289 46 23 46 C 10.29745101928711 46 0 35.70254898071289 0 23 C 0 10.29745101928711 10.29745101928711 0 23 0 Z"/>
      </g>
      <g id="Group_1705" data-name="Group 1705" transform="translate(1 -0.615)">
        <path id="Path_109" data-name="Path 109" class="cls-3" d="M0,31.112V0" transform="translate(399 276.615) rotate(135)"/>
        <path id="Path_1183" data-name="Path 1183" class="cls-3" d="M0,0V31.112" transform="translate(399 254.615) rotate(45)"/>
      </g>
    </g>
  </g>
</svg>
