<svg xmlns="http://www.w3.org/2000/svg" viewBox="0 0 39.31 36"><defs><style>.cls-1{fill:#414042;}</style></defs><title>warehouse_icon</title><g id="Layer_2" data-name="Layer 2"><g id="Layer_1-2" data-name="Layer 1"><path class="cls-1" d="M35.85,36H31.77a1.18,1.18,0,0,1-1.18-1.18V15.69H8.72V34.82A1.18,1.18,0,0,1,7.54,36H3.46a1.18,1.18,0,0,1-1.18-1.18V14H.79a.79.79,0,0,1-.44-1.44L18.79.26a1.57,1.57,0,0,1,1.74,0L39,12.53A.79.79,0,0,1,38.53,14H37V34.82A1.18,1.18,0,0,1,35.85,36Zm-3.69-1.57h3.29V13.19a.79.79,0,0,1,.53-.74L19.66,1.57l.44-.65-.44.65L3.32,12.44a.79.79,0,0,1,.53.74V34.43H7.15V14.9a.79.79,0,0,1,.79-.79H31.38a.79.79,0,0,1,.79.79Z"/><path class="cls-1" d="M28.23,24.85h-9.4a.79.79,0,0,0-.79.79v.91h-7a.79.79,0,0,0-.79.79v7.89a.79.79,0,0,0,.79.79H28.23a.79.79,0,0,0,.79-.79V25.63A.79.79,0,0,0,28.23,24.85ZM11.87,28.11h2.3v2a.79.79,0,0,0,1.57,0v-2H18v6.31H11.87Zm15.57,6.31H19.61v-8h3.22v2.69a.79.79,0,1,0,1.57,0V26.42h3Z"/></g></g></svg>