<?xml version="1.0" encoding="UTF-8"?>
<svg width="268px" height="161px" viewBox="0 0 268 161" version="1.1" xmlns="http://www.w3.org/2000/svg" xmlns:xlink="http://www.w3.org/1999/xlink">
    <!-- Generator: sketchtool 51.3 (57544) - http://www.bohemiancoding.com/sketch -->
    <title>6B3B57BD-49DE-4470-A585-905F02C982F7</title>
    <desc>Created with sketchtool.</desc>
    <defs>
        <polygon id="path-1" points="0.27807709 0.570388402 111.777 0.570388402 111.777 32.8354116 0.27807709 32.8354116"></polygon>
        <polygon id="path-3" points="0 0.336688409 111.498823 0.336688409 111.498823 32.6017116 0 32.6017116"></polygon>
    </defs>
    <g id="Workspace" stroke="none" stroke-width="1" fill="none" fill-rule="evenodd">
        <g id="Contact_index_zero-data" transform="translate(-684.000000, -519.000000)">
            <g id="illustration_kontak_zero-data" transform="translate(684.000000, 519.000000)">
                <g id="Group-3" transform="translate(156.000000, 96.604000)">
                    <mask id="mask-2" fill="white">
                        <use xlink:href="#path-1"></use>
                    </mask>
                    <g id="Clip-2"></g>
                    <path d="M44.4911,0.5704 L104.4861,0.7144 C108.5221,0.7234 111.7861,4.0044 111.7771,8.0404 C111.7671,12.0764 108.4871,15.3414 104.4501,15.3314 L76.8061,15.2644 L84.4441,18.9374 C88.0821,20.6844 89.6161,25.0504 87.8681,28.6894 C86.6501,31.2274 84.0831,32.8404 81.2681,32.8354 L7.5691,32.6584 C3.5331,32.6484 0.2681,29.3684 0.2781,25.3324 C0.2881,21.2954 3.5681,18.0314 7.6041,18.0414 L48.9531,18.1394 L41.3151,14.4664 C37.6761,12.7194 36.1431,8.3534 37.8901,4.7154 C39.1081,2.1774 41.6761,0.5654 44.4911,0.5704" id="Fill-1" fill="#F0F7FB" mask="url(#mask-2)"></path>
                </g>
                <path d="M160.0131,88.2975 L233.7111,88.4745 C237.7481,88.4845 241.0121,91.7645 241.0031,95.8005 C240.9931,99.8365 237.7131,103.1015 233.6761,103.0915 L192.3281,102.9925 L199.9661,106.6645 C203.6041,108.4125 205.1381,112.7775 203.3911,116.4165 C202.1721,118.9545 199.6051,120.5675 196.7901,120.5625 L136.7951,120.4185 C132.7591,120.4085 129.4941,117.1285 129.5041,113.0925 C129.5131,109.0555 132.7941,105.7915 136.8301,105.8015 L164.4841,105.8675 L156.8461,102.1945 C153.2071,100.4475 151.6741,96.0815 153.4211,92.4435 C154.6381,89.9075 157.2011,88.2965 160.0131,88.2975" id="Fill-4" fill="#F0F7FB"></path>
                <path d="M91.8075,115.7438 L151.8025,115.8878 C155.8385,115.8968 159.1025,119.1778 159.0935,123.2138 C159.0835,127.2498 155.8035,130.5148 151.7675,130.5048 L124.1225,130.4378 L131.7605,134.1108 C135.3985,135.8578 136.9325,140.2238 135.1845,143.8628 C133.9665,146.3998 131.3995,148.0128 128.5845,148.0088 L54.8855,147.8318 C50.8495,147.8218 47.5845,144.5418 47.5945,140.5058 C47.6045,136.4688 50.8845,133.2048 54.9205,133.2138 L96.2695,133.3128 L88.6315,129.6398 C84.9925,127.8928 83.4595,123.5268 85.2065,119.8888 C86.4245,117.3508 88.9925,115.7388 91.8075,115.7438" id="Fill-6" fill="#F0F7FB"></path>
                <path d="M51.3295,106.8756 L125.0275,107.0526 C129.0645,107.0626 132.3285,110.3426 132.3195,114.3786 C132.3095,118.4156 129.0295,121.6796 124.9925,121.6696 L83.6445,121.5706 L91.2825,125.2436 C94.9215,126.9906 96.4545,131.3566 94.7075,134.9956 C93.4885,137.5326 90.9215,139.1456 88.1065,139.1406 L28.1115,138.9966 C24.0755,138.9866 20.8105,135.7066 20.8205,131.6706 C20.8295,127.6346 24.1105,124.3696 28.1465,124.3796 L55.7915,124.4456 L48.1535,120.7726 C44.5145,119.0256 42.9815,114.6596 44.7285,111.0216 C45.9475,108.4826 48.5145,106.8706 51.3295,106.8756" id="Fill-8" fill="#F0F7FB"></path>
                <g id="Group-12" transform="translate(0.000000, 65.604000)">
                    <mask id="mask-4" fill="white">
                        <use xlink:href="#path-3"></use>
                    </mask>
                    <g id="Clip-11"></g>
                    <path d="M67.2858,32.6017 L7.2908,32.4577 C3.2548,32.4487 -0.0092,29.1677 -0.0002,25.1317 C0.0098,21.0947 3.2898,17.8307 7.3258,17.8407 L34.9708,17.9067 L27.3328,14.2347 C23.6948,12.4867 22.1608,8.1217 23.9088,4.4827 C25.1268,1.9447 27.6938,0.3317 30.5088,0.3367 L104.2078,0.5137 C108.2438,0.5237 111.5088,3.8037 111.4988,7.8397 C111.4888,11.8757 108.2088,15.1407 104.1728,15.1307 L62.8238,15.0317 L70.4618,18.7047 C74.1008,20.4517 75.6338,24.8177 73.8868,28.4557 C72.6688,30.9947 70.1008,32.6067 67.2858,32.6017" id="Fill-10" fill="#F0F7FB" mask="url(#mask-4)"></path>
                </g>
                <path d="M107.7638,107.0826 L34.0658,106.9056 C30.0288,106.8956 26.7648,103.6156 26.7738,99.5796 C26.7838,95.5426 30.0638,92.2786 34.1008,92.2886 L75.4488,92.3876 L67.8108,88.7146 C64.1718,86.9676 62.6388,82.6016 64.3858,78.9626 C65.6048,76.4256 68.1718,74.8126 70.9868,74.8176 L130.9818,74.9616 C135.0178,74.9716 138.2828,78.2516 138.2728,82.2876 C138.2638,86.3236 134.9828,89.5886 130.9468,89.5786 L103.2928,89.5126 L110.9308,93.1856 C114.5698,94.9326 116.1028,99.2986 114.3558,102.9366 C113.1388,105.4716 110.5758,107.0836 107.7638,107.0826" id="Fill-13" fill="#F0F7FB"></path>
                <path d="M160.3881,79.6363 L100.3931,79.4923 C96.3571,79.4833 93.0921,76.2023 93.1021,72.1663 C93.1121,68.1293 96.3921,64.8653 100.4281,64.8753 L128.0731,64.9423 L120.4351,61.2693 C116.7971,59.5223 115.2631,55.1563 117.0101,51.5173 C118.2291,48.9793 120.7961,47.3663 123.6111,47.3713 L197.3101,47.5483 C201.3461,47.5583 204.6111,50.8383 204.6011,54.8743 C204.5911,58.9103 201.3111,62.1753 197.2751,62.1653 L155.9261,62.0673 L163.5641,65.7393 C167.2031,67.4873 168.7361,71.8523 166.9891,75.4913 C165.7711,78.0293 163.2031,79.6413 160.3881,79.6363" id="Fill-15" fill="#F0F7FB"></path>
                <path d="M200.8659,88.5035 L127.1679,88.3265 C123.1309,88.3175 119.8669,85.0375 119.8759,81.0005 C119.8859,76.9645 123.1659,73.6995 127.2029,73.7095 L168.5509,73.8095 L160.9129,70.1365 C157.2749,68.3895 155.7409,64.0235 157.4889,60.3845 C158.7069,57.8465 161.2739,56.2335 164.0889,56.2385 L224.0839,56.3835 C228.1209,56.3935 231.3849,59.6725 231.3749,63.7095 C231.3659,67.7455 228.0859,71.0105 224.0489,71.0005 L196.4039,70.9345 L204.0419,74.6075 C207.6809,76.3545 209.2139,80.7205 207.4669,84.3585 C206.2489,86.8965 203.6809,88.5085 200.8659,88.5035" id="Fill-17" fill="#F0F7FB"></path>
                <path d="M153.1535,5.9332 L147.9785,8.2592 L147.4985,7.1912 C145.3795,2.4782 139.8205,0.3682 135.1075,2.4862 L62.2915,35.2232 C57.5785,37.3422 55.4675,42.9022 57.5865,47.6152 L105.8995,155.0752 C108.0185,159.7872 113.5775,161.8992 118.2915,159.7802 L191.1065,127.0422 C195.8195,124.9242 197.9305,119.3652 195.8115,114.6522 L158.8015,32.3322 L161.5345,31.1042 C162.2085,30.8012 162.5095,30.0082 162.2065,29.3342 L160.4285,25.3802 C160.1255,24.7052 159.3325,24.4052 158.6585,24.7082 L155.9255,25.9372 L154.8285,23.4952 L158.7815,21.7162 C159.4565,21.4132 159.7575,20.6212 159.4535,19.9472 L157.6765,15.9932 C157.3725,15.3182 156.5805,15.0172 155.9055,15.3212 L151.9525,17.0982 L150.8545,14.6562 L156.0295,12.3292 C156.7035,12.0262 157.0045,11.2332 156.7015,10.5592 L154.9235,6.6052 C154.6205,5.9312 153.8275,5.6292 153.1535,5.9332" id="Fill-19" fill="#E8F5FC"></path>
                <path d="M152.7978,10.8463 L147.0048,13.4503 C146.5008,13.6773 145.9088,13.4523 145.6828,12.9493 L143.6268,8.3763 C143.4008,7.8723 143.6248,7.2813 144.1288,7.0543 L149.9218,4.4503 C150.4258,4.2233 151.0178,4.4483 151.2448,4.9513 L153.2998,9.5243 C153.5268,10.0283 153.3018,10.6193 152.7978,10.8463" id="Fill-21" fill="#F0F7FB"></path>
                <path d="M152.7978,10.8463 L147.0048,13.4503 C146.5008,13.6773 145.9088,13.4523 145.6828,12.9493 L143.6268,8.3763 C143.4008,7.8723 143.6248,7.2813 144.1288,7.0543 L149.9218,4.4503 C150.4258,4.2233 151.0178,4.4483 151.2448,4.9513 L153.2998,9.5243 C153.5268,10.0283 153.3018,10.6193 152.7978,10.8463 Z" id="Stroke-23" stroke="#BAE1F4" stroke-width="1.5"></path>
                <path d="M155.5504,20.234 L150.9784,22.29 C150.4744,22.515 149.8824,22.291 149.6564,21.787 L147.6004,17.215 C147.3744,16.712 147.5984,16.12 148.1024,15.893 L152.6744,13.838 C153.1784,13.611 153.7704,13.836 153.9964,14.339 L156.0524,18.912 C156.2794,19.416 156.0544,20.007 155.5504,20.234" id="Fill-25" fill="#F0F7FB"></path>
                <path d="M155.5504,20.234 L150.9784,22.29 C150.4744,22.515 149.8824,22.291 149.6564,21.787 L147.6004,17.215 C147.3744,16.712 147.5984,16.12 148.1024,15.893 L152.6744,13.838 C153.1784,13.611 153.7704,13.836 153.9964,14.339 L156.0524,18.912 C156.2794,19.416 156.0544,20.007 155.5504,20.234 Z" id="Stroke-27" stroke="#BAE1F4" stroke-width="1.5"></path>
                <path d="M158.3029,29.6207 L154.9519,31.1277 C154.4479,31.3537 153.8559,31.1297 153.6299,30.6257 L151.5739,26.0537 C151.3479,25.5497 151.5729,24.9577 152.0759,24.7307 L155.4269,23.2247 C155.9309,22.9987 156.5229,23.2237 156.7499,23.7267 L158.8049,28.2997 C159.0319,28.8027 158.8069,29.3947 158.3029,29.6207" id="Fill-29" fill="#F0F7FB"></path>
                <path d="M158.3029,29.6207 L154.9519,31.1277 C154.4479,31.3537 153.8559,31.1297 153.6299,30.6257 L151.5739,26.0537 C151.3479,25.5497 151.5729,24.9577 152.0759,24.7307 L155.4269,23.2247 C155.9309,22.9987 156.5229,23.2237 156.7499,23.7267 L158.8049,28.2997 C159.0319,28.8027 158.8069,29.3947 158.3029,29.6207 Z" id="Stroke-31" stroke="#BAE1F4" stroke-width="1.5"></path>
                <g id="Group-36" transform="translate(53.000000, 0.604000)">
                    <path d="M92.9108,142.3546 L59.3468,157.4446 C56.3248,158.8036 52.7738,157.4556 51.4148,154.4326 L1.4338,43.2626 C0.0748,40.2406 1.4228,36.6886 4.4458,35.3306 L80.9698,0.9256 C83.9928,-0.4334 87.5438,0.9156 88.9028,3.9376 L138.8838,115.1076 C140.2428,118.1296 138.8938,121.6806 135.8718,123.0406 L106.0938,136.4276" id="Fill-33" fill="#FFFFFF"></path>
                    <path d="M92.9108,142.3546 L59.3468,157.4446 C56.3248,158.8036 52.7738,157.4556 51.4148,154.4326 L1.4338,43.2626 C0.0748,40.2406 1.4228,36.6886 4.4458,35.3306 L80.9698,0.9256 C83.9928,-0.4334 87.5438,0.9156 88.9028,3.9376 L138.8838,115.1076 C140.2428,118.1296 138.8938,121.6806 135.8718,123.0406 L106.0938,136.4276" id="Stroke-35" stroke="#BAE1F4" stroke-width="2" stroke-linecap="round"></path>
                </g>
                <path d="M66.4594,65.3971 L62.5564,67.1521 C59.4894,68.5311 55.8524,67.1501 54.4734,64.0831 C53.0944,61.0161 54.4754,57.3781 57.5424,56.0001 L61.4454,54.2451 C64.5124,52.8661 68.1494,54.2481 69.5284,57.3141 C70.9074,60.3801 69.5264,64.0181 66.4594,65.3971" id="Fill-37" fill="#BAE1F4"></path>
                <path d="M66.4594,65.3971 L62.5564,67.1521 C59.4894,68.5311 55.8524,67.1501 54.4734,64.0831 C53.0944,61.0161 54.4754,57.3781 57.5424,56.0001 L61.4454,54.2451 C64.5124,52.8661 68.1494,54.2481 69.5284,57.3141 C70.9074,60.3801 69.5264,64.0181 66.4594,65.3971 Z" id="Stroke-39" stroke="#FFFFFF"></path>
                <path d="M75.1711,84.774 L71.2681,86.529 C68.2011,87.907 64.5641,86.526 63.1851,83.46 C61.8061,80.392 63.1871,76.755 66.2541,75.377 L70.1571,73.622 C73.2241,72.243 76.8611,73.624 78.2401,76.691 C79.6191,79.757 78.2381,83.395 75.1711,84.774" id="Fill-41" fill="#BAE1F4"></path>
                <path d="M75.1711,84.774 L71.2681,86.529 C68.2011,87.907 64.5641,86.526 63.1851,83.46 C61.8061,80.392 63.1871,76.755 66.2541,75.377 L70.1571,73.622 C73.2241,72.243 76.8611,73.624 78.2401,76.691 C79.6191,79.757 78.2381,83.395 75.1711,84.774 Z" id="Stroke-43" stroke="#FFFFFF"></path>
                <path d="M92.5941,123.527 L88.6911,125.282 C85.6241,126.661 81.9871,125.28 80.6081,122.213 C79.2291,119.146 80.6101,115.508 83.6771,114.13 L87.5801,112.375 C90.6471,110.996 94.2841,112.378 95.6631,115.444 C97.0421,118.51 95.6611,122.148 92.5941,123.527" id="Fill-45" fill="#BAE1F4"></path>
                <path d="M92.5941,123.527 L88.6911,125.282 C85.6241,126.661 81.9871,125.28 80.6081,122.213 C79.2291,119.146 80.6101,115.508 83.6771,114.13 L87.5801,112.375 C90.6471,110.996 94.2841,112.378 95.6631,115.444 C97.0421,118.51 95.6611,122.148 92.5941,123.527 Z" id="Stroke-47" stroke="#FFFFFF"></path>
                <path d="M101.3056,142.9039 L97.4026,144.6579 C94.3356,146.0369 90.6986,144.6559 89.3196,141.5899 C87.9406,138.5219 89.3216,134.8849 92.3886,133.5069 L96.2916,131.7519 C99.3586,130.3729 102.9956,131.7539 104.3746,134.8209 C105.7536,137.8869 104.3726,141.5249 101.3056,142.9039" id="Fill-49" fill="#BAE1F4"></path>
                <path d="M101.3056,142.9039 L97.4026,144.6579 C94.3356,146.0369 90.6986,144.6559 89.3196,141.5899 C87.9406,138.5219 89.3216,134.8849 92.3886,133.5069 L96.2916,131.7519 C99.3586,130.3729 102.9956,131.7539 104.3746,134.8209 C105.7536,137.8869 104.3726,141.5249 101.3056,142.9039 Z" id="Stroke-51" stroke="#FFFFFF"></path>
                <path d="M83.8825,104.15 L79.9795,105.905 C76.9125,107.284 73.2755,105.903 71.8965,102.836 C70.5175,99.769 71.8985,96.131 74.9655,94.754 L78.8685,92.999 C81.9355,91.62 85.5725,93.001 86.9515,96.067 C88.3305,99.134 86.9495,102.771 83.8825,104.15" id="Fill-53" fill="#BAE1F4"></path>
                <path d="M83.8825,104.15 L79.9795,105.905 C76.9125,107.284 73.2755,105.903 71.8965,102.836 C70.5175,99.769 71.8985,96.131 74.9655,94.754 L78.8685,92.999 C81.9355,91.62 85.5725,93.001 86.9515,96.067 C88.3305,99.134 86.9495,102.771 83.8825,104.15 Z" id="Stroke-55" stroke="#FFFFFF"></path>
                <path d="M111.5487,121.0572 L161.7327,98.4952" id="Stroke-57" stroke="#BAE1F4" stroke-width="1.5" stroke-linecap="round"></path>
                <path d="M122.7809,123.6764 L156.2369,108.6354" id="Stroke-59" stroke="#BAE1F4" stroke-width="1.5" stroke-linecap="round"></path>
                <path d="M151.6046,92.7311 L113.9586,109.6561 C111.9436,110.5621 109.5766,109.6631 108.6706,107.6481 L87.5026,60.5651 C86.5966,58.5501 87.4956,56.1821 89.5106,55.2771 L127.1566,38.3511 C129.1706,37.4461 131.5386,38.3441 132.4446,40.3591 L153.6126,87.4421 C154.5186,89.4571 153.6196,91.8251 151.6046,92.7311" id="Fill-61" fill="#F0F7FB"></path>
                <path d="M151.6046,92.7311 L113.9586,109.6561 C111.9436,110.5621 109.5766,109.6631 108.6706,107.6481 L87.5026,60.5651 C86.5966,58.5501 87.4956,56.1821 89.5106,55.2771 L127.1566,38.3511 C129.1706,37.4461 131.5386,38.3441 132.4446,40.3591 L153.6126,87.4421 C154.5186,89.4571 153.6196,91.8251 151.6046,92.7311 Z" id="Stroke-63" stroke="#BAE1F4" stroke-width="1.5"></path>
                <path d="M121.3461,96.9879 L111.4711,106.7159 C111.3511,106.8749 111.2701,107.7589 111.2051,108.8829 L113.9951,109.6389 L116.0541,108.7139 L149.5101,93.6729 L151.4941,92.7809 L152.8541,90.1579 C151.9841,89.4889 151.2801,88.9919 151.0721,88.9829 L136.7061,90.2509 C135.3381,90.1939 134.1171,89.3719 133.5551,88.1209 L132.0321,84.7329 C132.1541,84.3479 132.2711,83.8649 132.3771,83.3139 C132.8101,81.1179 132.8741,78.8899 132.6291,76.6939 C133.5861,75.8509 133.9441,74.4629 133.3981,73.2469 L131.7711,69.6289 C131.4131,68.8319 130.7391,68.2779 129.9611,68.0289 L127.6091,62.7979 C127.6091,62.7979 125.0281,54.1759 114.0001,59.1339 C102.9801,64.0899 107.7131,71.7429 107.7131,71.7429 L110.0651,76.9739 C109.7361,77.7199 109.7021,78.5929 110.0611,79.3899 L111.6871,83.0079 C112.1151,83.9599 112.9951,84.5699 113.9621,84.7209 C116.6391,88.2509 120.2781,90.0169 120.2781,90.0169 L121.7651,93.3259 C122.3051,94.5259 122.1431,95.9349 121.3461,96.9879" id="Fill-65" fill="#BAE1F4"></path>
                <path d="M205.6845,152.6481 L159.5905,141.8561 C157.4395,141.3531 156.1035,139.2011 156.6075,137.0491 L175.7855,55.1341 C176.2895,52.9831 178.4415,51.6471 180.5915,52.1511 L226.6865,62.9431 C228.8375,63.4461 230.1725,65.5981 229.6695,67.7491 L210.4915,149.6651 C209.9875,151.8161 207.8355,153.1511 205.6845,152.6481" id="Fill-67" fill="#E8F5FC"></path>
                <path d="M202.3488,148.0914 L156.2548,137.2994 C154.1038,136.7964 152.7678,134.6444 153.2718,132.4924 L172.4498,50.5774 C172.9528,48.4264 175.1058,47.0904 177.2558,47.5944 L223.3508,58.3864 C225.5018,58.8894 226.8368,61.0414 226.3338,63.1924 L207.1558,145.1084 C206.6518,147.2594 204.4998,148.5944 202.3488,148.0914" id="Fill-69" fill="#FFFFFF"></path>
                <path d="M202.3488,148.0914 L156.2548,137.2994 C154.1038,136.7964 152.7678,134.6444 153.2718,132.4924 L172.4498,50.5774 C172.9528,48.4264 175.1058,47.0904 177.2558,47.5944 L223.3508,58.3864 C225.5018,58.8894 226.8368,61.0414 226.3338,63.1924 L207.1558,145.1084 C206.6518,147.2594 204.4998,148.5944 202.3488,148.0914 Z" id="Stroke-71" stroke="#BAE1F4" stroke-width="2"></path>
                <path d="M201.4184,133.4303 L163.5964,124.5753 C162.5214,124.3243 161.8534,123.2473 162.1054,122.1713 L176.6994,59.8363 C176.9504,58.7603 178.0274,58.0933 179.1024,58.3453 L216.9244,67.2003 C217.9994,67.4513 218.6674,68.5273 218.4154,69.6033 L203.8214,131.9383 C203.5694,133.0143 202.4934,133.6813 201.4184,133.4303" id="Fill-73" fill="#BAE1F4"></path>
                <path d="M194.2721,58.1949 L207.3081,61.2469" id="Stroke-75" stroke="#BAE1F4" stroke-width="1.5" stroke-linecap="round"></path>
                <path d="M191.7868,57.6129 C191.6868,58.0409 191.2588,58.3049 190.8318,58.2059 C190.4048,58.1049 190.1388,57.6769 190.2388,57.2509 C190.3388,56.8229 190.7668,56.5579 191.1938,56.6579 C191.6218,56.7579 191.8868,57.1849 191.7868,57.6129" id="Fill-77" fill="#BAE1F4"></path>
                <path d="M184.9294,136.278 C184.4234,138.438 182.2624,139.779 180.1034,139.273 C177.9434,138.768 176.6024,136.607 177.1074,134.447 C177.6134,132.287 179.7744,130.946 181.9344,131.452 C184.0944,131.958 185.4354,134.118 184.9294,136.278" id="Fill-79" fill="#BAE1F4"></path>
            </g>
        </g>
    </g>
</svg>