<svg xmlns="http://www.w3.org/2000/svg" viewBox="0 0 248.3 162"><defs><style>.cls-1{isolation:isolate;}.cls-2{fill:#f0f7fb;}.cls-3{fill:#fff;}.cls-4{fill:#bae1f4;}.cls-5{mix-blend-mode:multiply;}.cls-6{fill:#e8f5fc;}</style></defs><title>emptystate_penyesuaianstok</title><g class="cls-1"><g id="Layer_2" data-name="Layer 2"><g id="Layer_1-2" data-name="Layer 1"><path class="cls-2" d="M185.91,65.8l55.63.13a6.78,6.78,0,0,1,0,13.55l-25.63-.06L223,82.83A6.78,6.78,0,0,1,220,95.72l-68.34-.16a6.78,6.78,0,1,1,0-13.55l38.34.09L183,78.68a6.78,6.78,0,0,1,2.95-12.89Z"/><path class="cls-2" d="M148.38,57.57l68.34.16a6.78,6.78,0,1,1,0,13.55l-38.34-.09,7.08,3.41a6.78,6.78,0,0,1-2.95,12.89l-55.63-.13a6.78,6.78,0,1,1,0-13.55l25.64.06-7.08-3.41a6.78,6.78,0,0,1,2.94-12.89Z"/><path class="cls-2" d="M85.13,83l55.63.13a6.78,6.78,0,1,1,0,13.55l-25.63-.06,7.08,3.41a6.78,6.78,0,0,1-2.95,12.89l-68.34-.16a6.78,6.78,0,1,1,0-13.55l38.34.09L82.19,95.9A6.78,6.78,0,0,1,85.13,83Z"/><path class="cls-2" d="M47.6,74.79l68.34.16a6.78,6.78,0,0,1,0,13.55l-38.34-.09,7.08,3.41a6.78,6.78,0,0,1-2.95,12.89l-55.63-.13A6.78,6.78,0,1,1,26.1,91l25.63.06-7.08-3.41A6.78,6.78,0,0,1,47.6,74.79Z"/><path class="cls-2" d="M62.39,66.75,6.76,66.62a6.78,6.78,0,0,1,0-13.55l25.63.06-7.08-3.41a6.78,6.78,0,0,1,2.95-12.89L96.63,37a6.78,6.78,0,1,1,0,13.55l-38.34-.09,7.08,3.41a6.78,6.78,0,0,1-2.95,12.89Z"/><path class="cls-2" d="M99.93,75l-68.34-.16a6.78,6.78,0,1,1,0-13.55L70,61.36,62.88,58a6.78,6.78,0,0,1,2.95-12.89l55.63.13a6.78,6.78,0,1,1,0,13.55l-25.64-.06,7.08,3.41A6.78,6.78,0,0,1,99.93,75Z"/><path class="cls-2" d="M148.72,49.54,93.09,49.4a6.78,6.78,0,1,1,0-13.55l25.63.06-7.08-3.41a6.78,6.78,0,0,1,2.95-12.89l68.34.16a6.78,6.78,0,0,1,0,13.55l-38.34-.09,7.08,3.41a6.78,6.78,0,0,1-2.95,12.89Z"/><path class="cls-2" d="M186.26,57.76l-68.34-.16A6.78,6.78,0,0,1,118,44l38.34.09-7.08-3.41a6.78,6.78,0,0,1,2.95-12.89l55.63.13a6.78,6.78,0,0,1,0,13.55l-25.63-.06,7.08,3.41a6.78,6.78,0,0,1-2.95,12.89Z"/><rect class="cls-3" x="63.71" y="2.29" width="117.99" height="128"/><path class="cls-3" d="M53.71,1h8a2,2,0,0,1,2,2V160a1,1,0,0,1-1,1h-10a1,1,0,0,1-1-1V3a2,2,0,0,1,2-2Z"/><path class="cls-4" d="M62.71,162h-10a2,2,0,0,1-2-2V3a3,3,0,0,1,3-3h8a3,3,0,0,1,3,3V160A2,2,0,0,1,62.71,162Zm-9-160a1,1,0,0,0-1,1V160h10V3a1,1,0,0,0-1-1Z"/><path class="cls-3" d="M193.7,128.22V3a2,2,0,0,0-2-2h-8a2,2,0,0,0-2,2V160a1,1,0,0,0,1,1h10a1,1,0,0,0,1-1V148.29"/><path class="cls-4" d="M192.7,162h-10a2,2,0,0,1-2-2V3a3,3,0,0,1,3-3h8a3,3,0,0,1,3,3V128.22a1,1,0,0,1-2,0V3a1,1,0,0,0-1-1h-8a1,1,0,0,0-1,1V160h10V148.29a1,1,0,0,1,2,0V160A2,2,0,0,1,192.7,162Z"/><rect class="cls-3" x="63.71" y="50.75" width="117.99" height="10"/><path class="cls-4" d="M182.7,61.75h-120v-12h120Zm-118-2h116v-8h-116Z"/><rect class="cls-3" x="63.71" y="121" width="117.99" height="10"/><path class="cls-4" d="M182.7,132h-120V120h120Zm-118-2h116v-8h-116Z"/><path class="cls-3" d="M122.5,82.94h43.82a1,1,0,0,1,1,1V119.5a1.5,1.5,0,0,1-1.5,1.5H123a1.5,1.5,0,0,1-1.5-1.5V83.94a1,1,0,0,1,1-1Z"/><path class="cls-4" d="M165.82,122H123a2.5,2.5,0,0,1-2.5-2.5V83.94a2,2,0,0,1,2-2h43.82a2,2,0,0,1,2,2V119.5A2.5,2.5,0,0,1,165.82,122ZM122.5,83.94V119.5a.5.5,0,0,0,.5.5h42.82a.5.5,0,0,0,.5-.5V83.94Z"/><rect class="cls-4" x="135.82" y="82.94" width="17.18" height="12" rx="1" ry="1"/><line class="cls-3" x1="151.57" y1="113.56" x2="160.73" y2="113.56"/><path class="cls-4" d="M160.73,114.56h-9.16a1,1,0,0,1,0-2h9.16a1,1,0,0,1,0,2Z"/><path class="cls-3" d="M77.6,12.69h43.82a1,1,0,0,1,1,1V49.25a1.5,1.5,0,0,1-1.5,1.5H78.1a1.5,1.5,0,0,1-1.5-1.5V13.69a1,1,0,0,1,1-1Z"/><path class="cls-4" d="M120.92,51.75H78.1a2.5,2.5,0,0,1-2.5-2.5V13.69a2,2,0,0,1,2-2h43.82a2,2,0,0,1,2,2V49.25A2.5,2.5,0,0,1,120.92,51.75ZM77.6,13.69V49.25a.5.5,0,0,0,.5.5h42.82a.5.5,0,0,0,.5-.5V13.69Z"/><rect class="cls-4" x="90.92" y="12.69" width="17.18" height="12" rx="1" ry="1"/><line class="cls-3" x1="106.67" y1="43.31" x2="115.83" y2="43.31"/><path class="cls-4" d="M115.83,44.31h-9.16a1,1,0,1,1,0-2h9.16a1,1,0,0,1,0,2Z"/><path class="cls-3" d="M136.64,23.56h30.73a1,1,0,0,1,1,1V49.25a1.5,1.5,0,0,1-1.5,1.5H137.14a1.5,1.5,0,0,1-1.5-1.5V24.56a1,1,0,0,1,1-1Z"/><path class="cls-4" d="M166.86,51.75H137.14a2.5,2.5,0,0,1-2.5-2.5V24.56a2,2,0,0,1,2-2h30.73a2,2,0,0,1,2,2V49.25A2.5,2.5,0,0,1,166.86,51.75ZM136.64,24.56V49.25a.5.5,0,0,0,.5.5h29.73a.5.5,0,0,0,.5-.5V24.56Z"/><rect class="cls-4" x="145.86" y="23.56" width="12.27" height="8.57" rx="1" ry="1"/><line class="cls-3" x1="157.11" y1="45.44" x2="163.66" y2="45.44"/><path class="cls-4" d="M163.66,46.44h-6.54a1,1,0,0,1,0-2h6.54a1,1,0,0,1,0,2Z"/><g class="cls-5"><rect class="cls-6" x="31.38" y="73.09" width="64.53" height="75.57" rx="2" ry="2" transform="translate(-24.05 17.85) rotate(-13.45)"/></g><path class="cls-3" d="M32.51,133.2,20,80.84a2,2,0,0,1,1.48-2.41L80.34,64.35a2,2,0,0,1,2.41,1.48l16.65,69.6a2,2,0,0,1-1.48,2.41L39,151.93a2,2,0,0,1-2.41-1.48l-1.17-4.9"/><path class="cls-4" d="M38.58,153a3,3,0,0,1-2.91-2.3l-1.17-4.9a1,1,0,1,1,1.95-.46l1.17,4.9a1,1,0,0,0,1.21.74l58.87-14.08a1,1,0,0,0,.74-1.21L81.78,66.06a1,1,0,0,0-1.21-.74L21.7,79.41A1,1,0,0,0,21,80.61L33.49,133a1,1,0,0,1-1.95.46L19,81.08a3,3,0,0,1,2.22-3.62L80.11,63.38a3,3,0,0,1,3.62,2.22l16.65,69.6a3,3,0,0,1-2.22,3.62L39.28,152.9A3,3,0,0,1,38.58,153Z"/><rect class="cls-2" x="38.96" y="66.96" width="23.88" height="8.86" rx="2" ry="2" transform="translate(-15.21 13.8) rotate(-13.45)"/><path class="cls-4" d="M41.8,79.07a3,3,0,0,1-2.91-2.3L37.75,72A3,3,0,0,1,40,68.42L59.31,63.8A3,3,0,0,1,62.92,66l1.13,4.73a3,3,0,0,1-2.22,3.62L42.5,79A3,3,0,0,1,41.8,79.07ZM60,65.71l-.23,0L40.44,70.37a1,1,0,0,0-.74,1.21l1.13,4.73A1,1,0,0,0,42,77l19.33-4.62a1,1,0,0,0,.74-1.21L61,66.48a1,1,0,0,0-1-.77Z"/><path class="cls-4" d="M31.71,101.25a1,1,0,0,1-.23-2l23-5.5A1,1,0,1,1,55,95.73l-23,5.5Z"/><path class="cls-4" d="M35.49,117a1,1,0,0,1-.23-2l23-5.5a1,1,0,1,1,.46,1.95l-23,5.5Z"/><path class="cls-4" d="M39.21,132.6a1,1,0,0,1-.23-2l23-5.5a1,1,0,0,1,.46,1.95l-23,5.5Z"/><path class="cls-4" d="M70.42,108.69a1,1,0,0,1-.23-2l14.22-3.4a1,1,0,0,1,.46,1.95l-14.22,3.4Z"/><path class="cls-4" d="M74.14,124.25a1,1,0,0,1-.23-2l14.22-3.4a1,1,0,0,1,.46,1.95l-14.22,3.4Z"/><path class="cls-4" d="M72.07,96.15a2,2,0,0,1-1.17-.38l-5-3.58a1,1,0,1,1,1.17-1.62l5,3.58,7.3-10.63A1,1,0,1,1,81,84.65l-7.3,10.63a2,2,0,0,1-1.3.84A2.07,2.07,0,0,1,72.07,96.15Z"/></g></g></g></svg>