<svg xmlns="http://www.w3.org/2000/svg" viewBox="0 0 34 36"><defs><style>.cls-1{fill:#414042;}</style></defs><title>produk_icon</title><g id="Layer_2" data-name="Layer 2"><g id="Layer_1-2" data-name="Layer 1"><path class="cls-1" d="M34,8.47a.7.7,0,0,0,0-.52.72.72,0,0,0-.54-.39,1.44,1.44,0,0,0-.23-.15L17.63.14a1.48,1.48,0,0,0-1.26,0L.84,7.42a1.42,1.42,0,0,0-.23.15A.72.72,0,0,0,.07,8a.7.7,0,0,0,0,.52,1.38,1.38,0,0,0,0,.25V27.23a1.45,1.45,0,0,0,.83,1.3l15.53,7.32a1.49,1.49,0,0,0,1.27,0l15.53-7.32a1.45,1.45,0,0,0,.83-1.3V8.72A1.38,1.38,0,0,0,34,8.47Zm-17-7L31.56,8.27l-4.08,1.91L12.92,3.36Zm7.13,11.42s0,0,0-.06a.7.7,0,0,0-.05-.2s0,0,0,0l0,0a.72.72,0,0,0-.15-.2h0a.73.73,0,0,0-.16-.11l-14.87-7,2.37-1.11,15.53,7.27v5.16l-2.61,1.22V12.87ZM17,15.08,2.44,8.27l4.69-2.2,14.56,6.82ZM1.47,9.41l14.8,6.93V34.21l-14.8-7Zm16.27,24.8V16.34L22.66,14v3.79A1.43,1.43,0,0,0,23.35,19a1.48,1.48,0,0,0,1.42.08l2.61-1.22a1.45,1.45,0,0,0,.84-1.31V11.43l4.31-2V27.23Z"/></g></g></svg>