<svg xmlns="http://www.w3.org/2000/svg" viewBox="0 0 41.29 36"><defs><style>.cls-1{fill:#414042;}.cls-2{fill:#fff;}.cls-3{fill:#ffb700;}</style></defs><title>produksegerahabis_icon</title><g id="Layer_2" data-name="Layer 2"><g id="Layer_1-2" data-name="Layer 1"><path class="cls-1" d="M41.26,8.47a.7.7,0,0,0,0-.52.72.72,0,0,0-.54-.39,1.44,1.44,0,0,0-.23-.15L24.93.14a1.48,1.48,0,0,0-1.26,0L8.13,7.42a1.42,1.42,0,0,0-.23.15A.72.72,0,0,0,7.37,8a.7.7,0,0,0,0,.52,1.38,1.38,0,0,0,0,.25V27.23a1.45,1.45,0,0,0,.83,1.3l15.53,7.32a1.49,1.49,0,0,0,1.27,0l15.53-7.32a1.45,1.45,0,0,0,.83-1.3V8.72A1.38,1.38,0,0,0,41.26,8.47Zm-17-7L38.85,8.27l-4.08,1.91L20.22,3.36Zm7.13,11.42s0,0,0-.06a.7.7,0,0,0-.05-.2s0,0,0,0l0,0a.72.72,0,0,0-.15-.2h0a.73.73,0,0,0-.16-.11l-14.87-7,2.37-1.11L34,11.43v5.16l-2.61,1.22V12.87Zm-7.13,2.21L9.74,8.27l4.69-2.2L29,12.89ZM8.76,9.41l14.8,6.93V34.21l-14.8-7ZM25,34.21V16.34L30,14v3.79A1.43,1.43,0,0,0,30.64,19a1.48,1.48,0,0,0,1.42.08l2.61-1.22a1.45,1.45,0,0,0,.84-1.31V11.43l4.31-2V27.23Z"/><circle class="cls-2" cx="8" cy="26.47" r="8"/><path class="cls-3" d="M14.4,26.1a6.39,6.39,0,0,0-.68-2.53.7.7,0,0,0-.94-.31.7.7,0,0,0-.31.94,5,5,0,0,1-4.2,7.27H8a5,5,0,0,1-.29-10,5,5,0,0,1,2.66.59A.7.7,0,1,0,11,20.82,6.41,6.41,0,1,0,8,32.88h.37A6.42,6.42,0,0,0,14.4,26.1Z"/><path class="cls-3" d="M8,22.69a.7.7,0,0,0-.7.7v4.43l-1-1a.7.7,0,0,0-1,0,.7.7,0,0,0,0,1L7.5,30a.7.7,0,0,0,1,0l2.2-2.29a.7.7,0,0,0,0-1,.7.7,0,0,0-1,0l-1,1V23.39A.7.7,0,0,0,8,22.69Z"/></g></g></svg>